<?xml version="1.0" encoding="UTF-8" standalone="no"?>
<!-- Created with Inkscape (http://www.inkscape.org/) -->

<svg
   width="64"
   height="64"
   viewBox="0 0 16.933333 16.933333"
   version="1.1"
   id="svg5"
   inkscape:version="1.2.2 (b0a8486541, 2022-12-01)"
   sodipodi:docname="pika-mono-small.svg"
   xmlns:inkscape="http://www.inkscape.org/namespaces/inkscape"
   xmlns:sodipodi="http://sodipodi.sourceforge.net/DTD/sodipodi-0.dtd"
   xmlns="http://www.w3.org/2000/svg"
   xmlns:svg="http://www.w3.org/2000/svg">
  <sodipodi:namedview
     id="namedview7"
     pagecolor="#5aff00"
     bordercolor="#999999"
     borderopacity="1"
     inkscape:showpageshadow="0"
     inkscape:pageopacity="0"
     inkscape:pagecheckerboard="0"
     inkscape:deskcolor="#d1d1d1"
     inkscape:document-units="mm"
     showgrid="false"
     inkscape:zoom="8"
     inkscape:cx="15"
     inkscape:cy="49.8125"
     inkscape:window-width="1920"
     inkscape:window-height="943"
     inkscape:window-x="0"
     inkscape:window-y="0"
     inkscape:window-maximized="1"
     inkscape:current-layer="layer1" />
  <defs
     id="defs2" />
  <g
     inkscape:label="Layer 1"
     inkscape:groupmode="layer"
     id="layer1">
    <g
       id="#ffffffff"
       transform="scale(0.02766885)">
      <path
         fill="#ffffff"
         opacity="1"
         d="m 300.16,0 h 8.64 c 39.78,0.39 79.52,8.42 116.17,23.95 43.94,18.49 83.4,47.47 114.24,83.82 22.73,26.69 40.82,57.33 53.17,90.14 12.71,33.54 19.21,69.34 19.62,105.18 v 5.83 c -0.44,43.12 -9.88,86.17 -28.03,125.32 -15.57,33.82 -37.44,64.71 -64.06,90.73 -18,17.65 -38.31,32.83 -59.92,45.77 -5.68,2.59 -10.91,6.04 -16.55,8.72 -2.93,1.63 -6.31,2.57 -8.81,4.9 l -0.06,0.01 c -1.45,0.23 -2.86,0.64 -4.18,1.26 -8.35,3.79 -16.91,7.08 -25.59,10.02 -1.94,0.7 -4.14,1.01 -5.72,2.45 -28.64,8.4 -58.32,13.39 -88.19,13.9 H 303.2 C 261.18,611.58 219.22,602.63 180.87,585.4 145.84,569.76 113.85,547.38 87.03,519.96 50.45,482.57 23.65,435.67 10.29,385.08 3.64,360.24 0.31,334.54 0,308.84 v -5.71 C 0.45,249.92 14.95,196.87 42,151.02 71.98,99.83 117.2,57.72 170.43,31.52 210.64,11.56 255.31,0.95 300.16,0 m -52.29,45.11 c -44.46,9.76 -86.25,31.27 -120.12,61.68 -33.24,29.75 -59.07,67.91 -73.69,110.09 -8.17,22.89 -13.33,47 -14.49,71.28 l -0.31,0.08 c -1.06,20.37 -0.43,40.89 3.1,61.01 -0.28,2.99 0.97,5.78 1.44,8.68 7.5,38.37 23.62,75.02 46.84,106.48 l -0.05,0.3 c 0.3,0.27 0.9,0.8 1.19,1.07 32.48,44.08 79.17,77.47 131.24,94.33 41.04,13.42 85.33,16.52 127.89,9.35 36.63,-6.13 71.92,-20.11 102.85,-40.67 29.99,-19.87 55.85,-45.88 75.63,-75.91 18.35,-27.88 31.4,-59.23 38.2,-91.91 9.56,-46.1 6.94,-94.73 -7.97,-139.41 C 546.78,182.74 524.77,147.01 495.99,117.98 458.09,79.53 408.27,53 355.15,43.28 319.75,36.76 283.03,37.3 247.87,45.11 Z"
         id="path14443" />
    </g>
    <g
       id="#1a1a1aff"
       transform="scale(0.02766885)">
      <path
         fill="#1a1a1a"
         opacity="1"
         d="m 409.37,215.43 c 11.49,-4.36 25.33,4.3 26.42,16.52 1.64,10.48 -6.4,21.15 -16.92,22.47 -10.42,1.85 -21.27,-5.94 -22.86,-16.39 -1.93,-9.51 4.18,-19.65 13.36,-22.6 m 7.12,3.29 c -5.26,1.88 -6.62,9.59 -2.32,13.15 4.02,3.95 11.73,1.75 12.9,-3.82 1.94,-5.96 -4.91,-12 -10.58,-9.33 m -10.27,25.55 c -4.21,1.89 -0.52,8.72 3.42,6.1 3.89,-2.02 0.35,-8.47 -3.42,-6.1 z"
         id="path14449" />
    </g>
    <g
       id="#aaaea2ff"
       transform="scale(0.02766885)">
      <path
         fill="#aaaea2"
         opacity="1"
         d="m 39.57,288.16 c 17.47,-4.35 35.54,-5.44 53.47,-6.26 26.76,-0.83 53.61,0.18 80.14,3.84 14.59,2.29 29.33,5.04 42.9,11.11 22.91,10.8 39.95,32.46 46.39,56.82 6.56,23.82 3.2,49.98 -8.4,71.71 -15.5,29.94 -47.16,51.32 -81.08,52.65 -8.21,0.75 -16.31,-1 -24.41,-1.94 -10.52,-3.13 -21,-7.1 -29.83,-13.78 C 109.4,455.14 101.6,446.22 94.22,437.1 74.57,412.22 58.69,384.57 44.65,356.21 c -1.4,-2.08 -1.87,-4.54 -2.29,-6.96 -3.53,-20.12 -4.16,-40.64 -3.1,-61.01 z"
         id="path14462" />
    </g>
    <g
       id="#fff6ceff"
       transform="scale(0.02766885)">
      <path
         fill="#fff6ce"
         opacity="1"
         d="m 404.99,417.96 c 14.58,-2.58 28.88,-6.44 43.26,-9.87 -17.4,25.82 -40.17,48.08 -66.58,64.61 -31.91,20.1 -69.1,31.31 -106.69,33.33 -43.76,2.33 -88.76,-7.04 -126.4,-29.94 8.1,0.94 16.2,2.69 24.41,1.94 33.92,-1.33 65.58,-22.71 81.08,-52.65 28.29,1.34 56.62,0.9 84.91,-0.02 22.13,-1.05 44.26,-3.07 66.01,-7.4 z"
         id="path14468" />
    </g>
    <g
       id="#6146339b"
       transform="scale(0.02766885)">
      <path
         fill="#614633"
         opacity="0.61"
         d="m 90.64,464.41 c 0.84,-6.91 0.22,-13.99 2.16,-20.77 -0.31,7.38 -1.84,14.73 -1.02,22.14 -0.29,-0.27 -0.89,-0.8 -1.19,-1.07 z"
         id="path14471" />
    </g>
    <g
       id="#826c5cb3"
       transform="scale(0.02766885)">
      <path
         fill="#826c5c"
         opacity="0.7"
         d="m 443.44,579.46 c 5.64,-2.68 10.87,-6.13 16.55,-8.72 -4.35,3.55 -9.51,5.93 -14.37,8.69 -3.62,1.71 -6.99,4.17 -10.99,4.93 2.5,-2.33 5.88,-3.27 8.81,-4.9 z"
         id="path14474" />
    </g>
    <g
       id="#806653ba"
       transform="scale(0.02766885)">
      <path
         fill="#806653"
         opacity="0.73"
         d="m 430.39,585.63 c 1.32,-0.62 2.73,-1.03 4.18,-1.26 -2.24,2.04 -5.22,2.88 -7.92,4.11 -9.03,3.62 -18.06,7.48 -27.57,9.62 1.58,-1.44 3.78,-1.75 5.72,-2.45 8.68,-2.94 17.24,-6.23 25.59,-10.02 z"
         id="path14477" />
    </g>
    <path
       style="fill:#000000;stroke-width:0.110311"
       d="m 25.702199,52.833648 c -3.093097,-0.216791 -6.223685,-1.056747 -8.829479,-2.369004 -0.422063,-0.212547 -0.767387,-0.400237 -0.767387,-0.417088 0,-0.01685 0.682547,-0.03513 1.51677,-0.04061 1.173612,-0.0077 1.716424,-0.06311 2.399253,-0.244871 1.078416,-0.287056 2.514182,-0.961243 3.411725,-1.60203 0.879581,-0.627964 2.230493,-2.051245 2.757777,-2.905513 l 0.42061,-0.681443 4.228476,6.29e-4 c 6.671658,9.82e-4 9.753215,-0.308547 14.434586,-1.449915 0.723686,-0.176443 1.333337,-0.303262 1.354779,-0.28182 0.08132,0.08132 -1.360184,1.881187 -2.312781,2.887737 -2.470412,2.610332 -5.743759,4.713966 -9.156143,5.884245 -2.888325,0.990552 -6.35291,1.437329 -9.458186,1.219684 z"
       id="path1222"
       transform="scale(0.26458333)" />
    <path
       style="fill:#000000;stroke-width:0.0291865"
       d="m 7.4644014,11.769834 c -0.2207215,-0.0052 -0.4013118,-0.01611 -0.4013118,-0.02433 0,-0.0082 0.026051,-0.06599 0.057888,-0.128403 0.031839,-0.06241 0.092487,-0.229342 0.1347729,-0.370963 C 7.3598465,10.897516 7.3855508,10.311406 7.3125969,9.9499207 7.1470315,9.1295457 6.5980016,8.4485107 5.8628068,8.1515527 5.2751706,7.9141957 4.3282766,7.7927967 3.0645636,7.7927967 c -0.8059083,0 -1.2381853,0.0274 -1.6724646,0.1060095 -0.1413105,0.02558 -0.2636093,0.039826 -0.2717753,0.031659 -0.022435,-0.022434 0.044235,-0.583421 0.1057673,-0.8899654 0.061544,-0.3066021 0.2235196,-0.9068171 0.2611456,-0.9676974 0.019574,-0.031671 0.062705,-0.011935 0.200806,0.091876 0.1668048,0.1253892 0.1966836,0.1361649 0.5791917,0.2088832 1.0013445,0.1903651 1.9844885,0.2651321 3.2111797,0.244207 0.8918591,-0.015213 1.3811853,-0.056513 2.095436,-0.1768573 l 0.3794222,-0.063929 0.00888,-0.091195 C 7.9703907,6.2012105 7.9630538,6.1930962 7.8612303,6.1739917 7.5929389,6.12366 7.1506492,5.8460102 7.1506492,5.7279206 c 0,-0.03593 0.025887,-0.04061 0.138635,-0.025067 0.2446441,0.033728 0.7891497,0.055487 0.8441867,0.033734 C 8.1726618,5.7210989 8.1172572,5.6904548 7.9240865,5.6207839 7.7796143,5.5686772 7.6154414,5.5022334 7.5592577,5.4731314 7.2526045,5.3142911 6.948901,5.0474126 6.8440426,4.8446383 6.8013719,4.7621221 6.8005314,4.7447438 6.8374254,4.707849 c 0.036895,-0.036895 0.065095,-0.032655 0.2219711,0.033373 0.2459466,0.1035177 0.701127,0.2100963 1.005609,0.2354596 0.2691453,0.022421 0.7006272,-0.00483 0.677182,-0.042763 C 8.7344563,4.921409 8.6457251,4.8956002 8.5450062,4.8765632 7.7915695,4.7341557 7.1049906,4.4049794 6.7552043,4.0184533 6.4758471,3.7097533 6.5614978,3.647944 7.0705524,3.7908841 7.6719299,3.9597478 8.1910173,4.025406 9.646079,4.1166563 c 1.528064,0.095828 1.876226,0.1548947 2.393278,0.4060259 0.469456,0.2280131 0.838517,0.5446709 1.109659,0.952097 0.123519,0.1856036 0.305262,0.6025311 0.304321,0.6981272 -3.7e-4,0.037004 -0.04838,0.088666 -0.131158,0.1411245 -0.167277,0.1060048 -0.299432,0.2988291 -0.341163,0.4977834 -0.06053,0.2885736 0.08155,0.5145169 0.39158,0.6226998 l 0.14838,0.051777 -0.01907,0.4056687 c -0.03443,0.7322979 -0.1503,1.3166399 -0.39123,1.9730159 -0.148977,0.4058643 -0.390957,0.9003493 -0.593233,1.2122673 l -0.13316,0.205339 -0.464325,0.109312 c -0.880087,0.207191 -1.411845,0.289095 -2.2009095,0.338998 -0.5198094,0.03288 -1.667211,0.05269 -2.2546431,0.03894 z M 11.60974,9.3811327 c 0.460432,-0.229443 0.571494,-0.870381 0.216451,-1.249138 -0.09564,-0.102024 -0.326846,-0.2145584 -0.491582,-0.239262 -0.162737,-0.024405 -0.41103,0.050311 -0.569911,0.171494 -0.344779,0.262971 -0.392384,0.804425 -0.101029,1.149085 0.205187,0.242727 0.640718,0.319985 0.946071,0.167821 z M 11.830862,6.9551608 C 12.02705,6.8165302 12.117553,6.5696337 12.055988,6.3410007 11.964331,6.0006108 11.579805,5.8299749 11.24596,5.9815454 c -0.307444,0.1395839 -0.402672,0.6095273 -0.175859,0.8678524 0.201747,0.2297766 0.522209,0.2743279 0.760761,0.105763 z"
       id="path1224" />
    <path
       style="fill:#000000;stroke-width:0.0195003"
       d=""
       id="path1226"
       transform="scale(0.26458333)" />
    <path
       style="fill:#000000;stroke-width:0.0195003"
       d="m 28.626479,44.479492 c -0.843281,-0.01341 -1.464435,-0.03789 -1.790557,-0.07057 -0.151383,-0.01517 -0.154654,0.01123 0.05341,-0.431126 0.24495,-0.520794 0.530772,-1.351426 0.652448,-1.896093 0.172237,-0.770996 0.250911,-1.572934 0.253485,-2.583794 0.0023,-0.898585 -0.04453,-1.419815 -0.185528,-2.06573 -0.435265,-1.993895 -1.525822,-3.849232 -3.019821,-5.137545 -0.917711,-0.791366 -1.861864,-1.325315 -3.036804,-1.717411 -0.75579,-0.252219 -1.45497,-0.419236 -2.686542,-0.641746 -0.05858,-0.01058 4.502568,-0.01815 11.427192,-0.01896 l 11.524692,-0.0013 -0.185253,0.06396 c -0.63948,0.22078 -1.133162,0.559838 -1.466075,1.006891 -0.521053,0.6997 -0.713558,1.624003 -0.52188,2.505792 0.108241,0.497947 0.327235,0.946089 0.652758,1.335772 0.606292,0.725796 1.821553,1.088064 2.908234,0.866942 0.548138,-0.111538 0.99798,-0.356564 1.41173,-0.768961 0.427453,-0.426055 0.684019,-0.907728 0.820821,-1.541005 0.03807,-0.176235 0.04423,-0.261789 0.04423,-0.61426 0,-0.349282 -0.0063,-0.438484 -0.04292,-0.606539 -0.164995,-0.757473 -0.56965,-1.385243 -1.128447,-1.750632 -0.225442,-0.147414 -0.59307,-0.330049 -0.864926,-0.429691 l -0.185253,-0.0679 3.87569,-0.001 3.87569,-0.001 -1.95e-4,0.07313 c -4.88e-4,0.210375 -0.08563,1.250295 -0.147294,1.798905 -0.263194,2.341754 -0.906816,4.664859 -1.939535,7.000618 -0.339866,0.768691 -0.87863,1.825878 -1.277005,2.505791 -0.191633,0.327067 -0.816369,1.30174 -0.853426,1.331464 -0.02189,0.01756 -1.216756,0.302763 -2.461432,0.587522 -3.463455,0.792371 -5.916085,1.094474 -9.828164,1.210585 -1.846143,0.05479 -4.458969,0.08056 -5.879349,0.05798 z"
       id="path1228"
       transform="scale(0.26458333)" />
    <path
       style="fill:#000000;stroke-width:0.0195003"
       d="m 26.488028,52.864193 c -3.491815,-0.122985 -7.154755,-1.084651 -10.044378,-2.637045 -0.142109,-0.07634 -0.258379,-0.150172 -0.258379,-0.16406 0,-0.01737 0.03194,-0.02547 0.102376,-0.02594 0.686911,-0.0046 2.250582,-0.04087 2.461916,-0.05706 0.795254,-0.06089 1.481235,-0.227156 2.324946,-0.563499 0.800004,-0.318919 1.524339,-0.691298 2.150379,-1.105505 0.513342,-0.339642 0.865898,-0.643108 1.53145,-1.318211 0.778312,-0.789481 1.174553,-1.286196 1.664497,-2.086564 l 0.198761,-0.324696 3.709112,-0.0098 c 3.458589,-0.0091 4.012482,-0.01661 5.356889,-0.07235 2.777786,-0.115165 4.993579,-0.375545 7.380873,-0.867334 0.680708,-0.140228 1.071013,-0.227679 2.086535,-0.467506 0.737707,-0.174218 1.137854,-0.262329 1.408899,-0.310234 0.03486,-0.0062 0.06338,-0.0036 0.06338,0.0057 0,0.05474 -0.364834,0.55731 -0.78686,1.083915 -1.100747,1.373515 -2.059743,2.381901 -3.169214,3.332428 -2.312899,1.981552 -5.012273,3.509723 -7.820654,4.427434 -2.555413,0.835047 -5.599846,1.25758 -8.360524,1.160346 z"
       id="path1230"
       transform="scale(0.26458333)" />
    <path
       style="fill:#000000;stroke-width:0.0195003"
       d="m 28.616728,44.479392 c -0.855699,-0.01356 -1.460246,-0.03739 -1.780806,-0.0702 -0.120328,-0.01232 -0.12298,-0.01381 -0.110767,-0.06247 0.0069,-0.02742 0.07694,-0.186289 0.155697,-0.353045 0.247217,-0.523479 0.525354,-1.324752 0.651588,-1.877134 0.257456,-1.126585 0.340855,-2.719935 0.20494,-3.915399 -0.154295,-1.357131 -0.726338,-2.870371 -1.548039,-4.095069 -0.938597,-1.398925 -2.27097,-2.531432 -3.747345,-3.185216 -0.887253,-0.392903 -1.967569,-0.697536 -3.360927,-0.947731 l -0.312005,-0.05603 11.524693,-5.39e-4 11.524692,-5.39e-4 -0.195003,0.06621 c -0.26468,0.08986 -0.665312,0.291629 -0.874009,0.440165 -0.599954,0.427009 -1.002622,1.095307 -1.138421,1.889416 -0.04436,0.259436 -0.04305,0.767837 0.0026,1.023999 0.144927,0.812432 0.568326,1.515443 1.145021,1.901187 0.955005,0.638792 2.329897,0.698513 3.279522,0.142451 0.72533,-0.424724 1.211974,-1.118073 1.400164,-1.994887 0.05928,-0.276199 0.06479,-0.908374 0.01028,-1.179062 -0.152499,-0.757236 -0.570484,-1.420168 -1.124401,-1.783324 -0.224813,-0.14739 -0.581576,-0.326349 -0.858014,-0.430396 l -0.204754,-0.07707 3.87569,-6.06e-4 3.87569,-6.05e-4 -1.95e-4,0.07313 c -4.88e-4,0.210375 -0.08563,1.250295 -0.147294,1.798905 -0.260879,2.321155 -0.903696,4.65406 -1.912857,6.942117 -0.370738,0.840568 -0.976241,2.020525 -1.391315,2.711284 -0.208221,0.346517 -0.732986,1.158162 -0.765823,1.184485 -0.02321,0.0186 -1.794059,0.439056 -2.771548,0.658048 -3.292037,0.737535 -5.723387,1.029004 -9.508269,1.13985 -1.903681,0.05575 -4.458064,0.0809 -5.898849,0.05808 z"
       id="path1232"
       transform="scale(0.26458333)" />
    <path
       style="fill:#000000;stroke-width:0.0195003"
       d="m 28.616728,44.478818 c -0.856836,-0.01306 -1.501858,-0.03808 -1.789154,-0.06939 -0.07454,-0.0081 -0.112127,-0.02097 -0.112127,-0.03831 0,-0.01435 0.0692,-0.173362 0.153777,-0.353363 0.170585,-0.363042 0.305692,-0.711424 0.463452,-1.195038 0.320152,-0.981425 0.460862,-2.006407 0.461784,-3.363806 6.81e-4,-1.003294 -0.06793,-1.604877 -0.272446,-2.38879 -0.429625,-1.646759 -1.276368,-3.137695 -2.454073,-4.321107 -1.022537,-1.027491 -2.139431,-1.713984 -3.549105,-2.181437 -0.740412,-0.245523 -1.534376,-0.433692 -2.701021,-0.640138 -0.02681,-0.0047 5.137361,-0.0092 11.475942,-0.0098 l 11.524692,-0.0012 -0.195003,0.06684 c -0.241787,0.08288 -0.61255,0.264518 -0.819014,0.40124 -0.217097,0.143764 -0.578916,0.508732 -0.728329,0.734671 -0.675466,1.021416 -0.667857,2.401212 0.01896,3.437473 0.147292,0.222233 0.476691,0.55783 0.675737,0.688453 0.829667,0.544465 2.007551,0.667877 2.911818,0.305084 1.21505,-0.48748 1.944769,-1.772839 1.790731,-3.15427 -0.07202,-0.645859 -0.416802,-1.347185 -0.860729,-1.750804 -0.249329,-0.226691 -0.704044,-0.485703 -1.146391,-0.652999 l -0.204754,-0.07744 3.87569,-6.06e-4 3.87569,-6.05e-4 -1.95e-4,0.07313 c -2.54e-4,0.106865 -0.05418,0.860579 -0.08825,1.233396 -0.242913,2.657685 -0.917445,5.172391 -2.076576,7.741629 -0.346523,0.768078 -0.900416,1.834536 -1.286637,2.477281 -0.208527,0.347026 -0.733041,1.158234 -0.765823,1.184412 -0.0259,0.02069 -1.736465,0.426577 -2.773408,0.65809 -3.516235,0.785053 -5.816352,1.045962 -10.227921,1.160181 -0.771045,0.01996 -3.763469,0.0599 -4.075568,0.05439 -0.09116,-0.0016 -0.58696,-0.0093 -1.101769,-0.01719 z"
       id="path1234"
       transform="scale(0.26458333)" />
    <path
       style="fill:#000000;stroke-width:0.0195003"
       d="m 28.558227,44.479449 c -0.811649,-0.01411 -1.45738,-0.04024 -1.730653,-0.07002 -0.07739,-0.0084 -0.112127,-0.02069 -0.112127,-0.03957 0,-0.01504 0.06071,-0.156504 0.134919,-0.314362 0.310439,-0.660396 0.584718,-1.471301 0.720378,-2.129795 0.174244,-0.84578 0.255475,-1.945166 0.217338,-2.941471 -0.02948,-0.7701 -0.08361,-1.171751 -0.245263,-1.81966 -0.496942,-1.991813 -1.605295,-3.762408 -3.149567,-5.031436 -1.319646,-1.084439 -2.780985,-1.686718 -5.175681,-2.133116 l -0.448507,-0.08361 11.524693,-4.48e-4 11.524692,-4.49e-4 -0.21009,0.07506 c -0.278362,0.09945 -0.571469,0.244286 -0.796234,0.393446 -0.232643,0.154391 -0.575156,0.495045 -0.72292,0.719 -0.492336,0.746199 -0.635601,1.635944 -0.407358,2.52989 0.154724,0.605991 0.535235,1.196249 0.994027,1.54196 0.653259,0.492244 1.699038,0.701466 2.55809,0.511779 0.997731,-0.220309 1.787761,-0.955382 2.111854,-1.964947 0.109602,-0.341411 0.136226,-0.526729 0.136684,-0.951404 4.48e-4,-0.416659 -0.02648,-0.603831 -0.134673,-0.936016 -0.172921,-0.530928 -0.531942,-1.057379 -0.906586,-1.329377 -0.257861,-0.187211 -0.608188,-0.370346 -0.984766,-0.514791 l -0.195004,-0.0748 3.87833,-9.08e-4 3.878333,-9.08e-4 -0.01354,0.248629 c -0.06732,1.235949 -0.233501,2.540114 -0.470212,3.69009 -0.590869,2.870515 -1.88511,5.982006 -3.504206,8.424488 l -0.239143,0.360756 -0.721512,0.170505 c -1.850676,0.437347 -2.578183,0.598968 -3.60756,0.801447 -1.953233,0.384202 -3.798369,0.610316 -5.9866,0.733634 -1.841915,0.103801 -5.83496,0.172595 -7.917133,0.1364 z"
       id="path1236"
       transform="scale(0.26458333)" />
    <path
       style="fill:#000000;stroke-width:0.0195003"
       d="m 28.314473,44.537297 c -0.604131,-0.01546 -1.702739,-0.05757 -1.711266,-0.06559 -0.0027,-0.0026 0.06003,-0.139923 0.139495,-0.305208 0.164365,-0.341868 0.326415,-0.722418 0.42204,-0.991096 0.03593,-0.100964 0.06829,-0.174717 0.07189,-0.163896 0.0071,0.02138 -0.132963,0.42595 -0.218223,0.630222 -0.0291,0.06971 -0.114169,0.256345 -0.189047,0.414736 -0.07488,0.158391 -0.133219,0.30318 -0.129645,0.321755 0.0048,0.02505 0.03411,0.03718 0.113488,0.047 0.849134,0.104962 5.254235,0.102841 8.287379,-0.004 2.62567,-0.09248 4.635611,-0.29329 6.727612,-0.672146 1.032558,-0.186993 2.060733,-0.40904 3.958567,-0.854898 l 1.023767,-0.240514 0.297928,-0.456611 c 0.532836,-0.81664 0.89398,-1.44987 1.33919,-2.348143 1.32403,-2.671407 2.131456,-5.342708 2.437239,-8.063385 0.0605,-0.538333 0.147463,-1.609757 0.147463,-1.816896 0,-0.03032 0.01015,-0.05513 0.02255,-0.05513 0.0501,0 -0.03073,1.185867 -0.140891,2.067035 -0.245429,1.963112 -0.717696,3.822433 -1.451252,5.713595 -0.591411,1.524704 -1.219337,2.789727 -2.046245,4.122366 -0.170308,0.27447 -0.498066,0.780953 -0.54706,0.845374 -0.01546,0.02033 -2.903232,0.710056 -3.494315,0.834598 -2.466165,0.519628 -4.622084,0.796465 -7.348286,0.94358 -1.850589,0.09986 -5.709374,0.148521 -7.712379,0.09725 z"
       id="path1238"
       transform="scale(0.26458333)" />
    <path
       style="fill:#000000;stroke-width:0.0195003"
       d=""
       id="path1240"
       transform="scale(0.26458333)" />
    <path
       style="fill:#000000;stroke-width:0.0195003"
       d="m 29.065236,44.536724 c -1.03158,-0.01177 -2.210574,-0.04808 -2.36104,-0.07272 l -0.0795,-0.01302 0.04416,-0.0975 0.04416,-0.0975 -0.0037,0.07611 c -0.0033,0.06856 0.0019,0.07765 0.05249,0.09162 0.121548,0.03356 0.747459,0.0585 1.640381,0.06536 l 0.936016,0.0072 -0.828764,-0.01584 c -0.773531,-0.01479 -1.452735,-0.04351 -1.691654,-0.07155 -0.06764,-0.0079 -0.102376,-0.02104 -0.102376,-0.03863 0,-0.01464 0.06038,-0.156031 0.13418,-0.314196 0.374992,-0.803674 0.64996,-1.672435 0.781554,-2.46932 0.12982,-0.786133 0.164421,-1.317517 0.151416,-2.325304 -0.01275,-0.987746 -0.06006,-1.391458 -0.251118,-2.14256 -0.678636,-2.667961 -2.460216,-4.909845 -4.821666,-6.067432 -0.958289,-0.469754 -2.088327,-0.797867 -3.843248,-1.115907 -0.0588,-0.01066 4.477316,-0.01814 11.427192,-0.01884 l 11.524692,-0.0012 -0.21009,0.07506 c -0.28021,0.100111 -0.572971,0.245071 -0.795333,0.393807 -0.215599,0.144212 -0.513295,0.431689 -0.67523,0.652053 -0.265473,0.361259 -0.458275,0.844771 -0.531982,1.334107 -0.02794,0.185469 -0.02859,0.686468 -0.0012,0.876586 0.06896,0.477743 0.24812,0.94493 0.510575,1.331426 0.152247,0.224202 0.44442,0.520573 0.648378,0.657695 0.662231,0.44522 1.609077,0.623864 2.425897,0.457701 1.138277,-0.231556 2.00578,-1.132325 2.250568,-2.336867 0.05851,-0.287887 0.05797,-0.894446 -10e-4,-1.173055 -0.10808,-0.510376 -0.3185,-0.950508 -0.637884,-1.334244 -0.283549,-0.340689 -0.728439,-0.622653 -1.373937,-0.87078 l -0.165753,-0.06371 3.87569,-8.94e-4 3.87569,-8.94e-4 v 0.08813 c 0,0.417018 -0.139977,1.825583 -0.265448,2.671167 -0.272443,1.836056 -0.858641,3.871573 -1.64544,5.713641 -0.453534,1.061828 -1.092574,2.32255 -1.591359,3.139507 -0.222471,0.364384 -0.633189,0.996599 -0.690323,1.062613 -0.0462,0.05338 -0.105376,0.06961 -1.131019,0.310217 -3.248095,0.761972 -4.818655,1.050022 -6.864115,1.258918 -1.982749,0.202492 -3.737184,0.278512 -7.478375,0.324039 -0.975991,0.01188 -1.778848,0.02584 -1.784126,0.03103 -0.01252,0.0123 2.27851,-0.0091 3.587906,-0.03346 4.766983,-0.08882 7.219298,-0.353307 10.881182,-1.173541 0.726781,-0.162794 0.938672,-0.206013 0.887265,-0.180976 -0.08229,0.04008 -1.721643,0.403054 -2.466791,0.54618 -3.139089,0.602946 -5.933834,0.83028 -10.559427,0.85894 -0.858014,0.0053 -1.612677,0.01168 -1.677028,0.01414 -0.06435,0.0025 -0.582085,-8.31e-4 -1.150519,-0.0073 z"
       id="path1242"
       transform="scale(0.26458333)" />
    <path
       style="fill:#000000;stroke-width:0.0145932"
       d="m 10.901127,7.4432639 c -0.01913,-0.012771 -0.04961,-0.068088 -0.04961,-0.090025 0,-0.027948 0.05759,-0.073925 0.09259,-0.073925 0.07251,0 0.110166,0.1017995 0.05584,0.1509665 -0.02802,0.02536 -0.07169,0.031097 -0.09882,0.012983 z"
       id="path1250" />
    <path
       style="fill:#ffffff;stroke-width:0.0780013"
       d="M 17.160287,49.952088 C 17.053035,49.93513 16.649378,49.882098 16.263272,49.83424 14.881651,49.662988 13.326287,48.995664 12.190255,48.086726 10.156228,46.459304 7.5154419,42.701847 5.1191968,38.025636 4.5312262,36.878226 4.5164846,36.835267 4.3563428,35.802599 4.2289847,34.981334 4.184692,34.248612 4.1550901,32.473329 l -0.037955,-2.276251 0.3009721,-0.08025 c 0.5533706,-0.147549 1.693397,-0.322717 2.9530163,-0.453739 1.5426295,-0.16046 6.4668415,-0.183094 8.0731345,-0.03711 5.355252,0.486707 7.652225,1.268644 9.608755,3.27102 3.805715,3.89489 3.535839,10.365848 -0.595407,14.276417 -1.45797,1.38009 -3.462062,2.387642 -5.29672,2.662909 -0.603038,0.09048 -1.74324,0.156454 -2.000599,0.115761 z"
       id="path1373"
       transform="scale(0.26458333)" />
    <path
       style="fill:#ffffff;stroke-width:0.021;stroke-dasharray:none"
       d="m 11.113386,9.410556 c -0.151884,-0.029977 -0.271923,-0.096835 -0.395209,-0.220122 -0.25878,-0.25878 -0.296978,-0.6309929 -0.09686,-0.9438293 0.202613,-0.3167346 0.603134,-0.4355211 0.950453,-0.2818853 0.130874,0.057892 0.309157,0.2336155 0.376887,0.3714774 0.05059,0.1029759 0.0569,0.1386941 0.0569,0.3221935 3e-6,0.1862645 -0.0059,0.2183373 -0.06024,0.3290813 -0.110821,0.2257068 -0.310125,0.3764669 -0.55835,0.4223538 -0.135755,0.025096 -0.149943,0.025133 -0.273584,7.409e-4 z"
       id="path1377" />
    <path
       style="fill:#ffffff;stroke-width:0.0780013"
       d="m 50.640286,28.048736 c -0.978083,-0.31969 -1.527781,-1.010104 -1.527322,-1.918299 6.46e-4,-1.277411 1.232704,-2.497671 2.896428,-2.868692 0.484074,-0.107951 0.993414,-0.134283 2.591521,-0.133974 2.001833,3.86e-4 2.685925,0.07009 3.00941,0.306626 0.136561,0.09986 0.128479,0.12844 -0.158931,0.562109 -0.412557,0.622501 -2.341685,2.53459 -3.200035,3.17177 -0.968058,0.718621 -1.507404,0.926292 -2.497492,0.961639 -0.526287,0.01879 -0.888516,-0.0076 -1.113579,-0.08118 z"
       id="path1379"
       transform="scale(0.26458333)" />
    <path
       style="fill:#000000;stroke-width:0.0780013"
       d="M 30.225505,59.856549 C 26.32881,59.543476 23.140818,58.697125 19.851332,57.102402 17.817432,56.11638 16.258602,55.135348 14.520453,53.747475 12.866714,52.427001 11.058841,50.581864 9.9066271,49.038553 l -0.338408,-0.453275 0.095257,-1.145751 c 0.1019669,-1.226459 0.1538242,-1.577128 0.2322824,-1.570735 0.027174,0.0022 0.1657885,0.151392 0.3080315,0.331506 0.54728,0.692986 1.875013,1.957791 2.477925,2.360482 0.6989,0.466804 1.240141,0.726501 2.187052,1.049387 0.348441,0.118815 0.953173,0.392367 1.343847,0.607895 2.145634,1.183704 4.463001,1.981808 7.031775,2.421754 2.932555,0.502249 6.570315,0.417159 9.438157,-0.220764 3.392227,-0.754568 6.767861,-2.362667 9.438158,-4.49619 0.939504,-0.750647 2.904571,-2.729946 3.669548,-3.696123 1.255628,-1.585876 2.615627,-3.863243 3.353821,-5.616093 0.135504,-0.321756 0.271507,-0.611905 0.302228,-0.644776 0.03072,-0.03287 0.386988,0.217019 0.791704,0.555313 2.720177,2.273742 4.463671,5.096327 4.965882,8.03939 l 0.128032,0.750296 -0.412357,0.611087 c -1.17067,1.734857 -3.465418,4.228649 -5.15473,5.601845 -4.295844,3.491976 -9.055957,5.519505 -14.547243,6.196274 -0.901676,0.111126 -4.18901,0.200996 -4.992084,0.136474 z"
       id="path1381"
       transform="scale(0.26458333)" />
    <path
       style="fill:#000000;stroke-width:0.00729657"
       d="m 11.158947,7.3483869 c -0.01003,-0.00515 -0.02803,-0.02806 -0.04,-0.0509 l -0.02176,-0.041527 0.01492,-0.019979 c 0.0537,-0.071931 0.135545,-0.065119 0.15659,0.013036 0.01753,0.065109 -0.05268,0.1286883 -0.10974,0.099371 z"
       id="path1383" />
    <path
       style="fill:#ffffff;stroke-width:0.0551553"
       d="M 29.397749,59.756894 C 25.695636,59.358039 22.719751,58.492092 19.484028,56.872118 17.389794,55.823634 15.83507,54.802527 14.006374,53.27452 13.186943,52.589828 11.575708,50.998063 10.885418,50.191278 10.244137,49.441773 9.5970137,48.599255 9.5970137,48.513847 c 0,-0.254612 0.2260072,-2.409008 0.2632903,-2.509794 0.045211,-0.122217 0.050677,-0.119936 0.207548,0.08663 0.25779,0.339452 1.499644,1.593953 1.982286,2.002473 0.813618,0.688666 1.419226,1.029387 2.648736,1.490202 0.424696,0.159175 1.194112,0.507915 1.709813,0.774979 4.174559,2.161861 8.517703,2.966232 13.520562,2.504072 4.365093,-0.403244 8.727888,-2.158936 12.209363,-4.913336 0.625374,-0.49477 3.068224,-2.945904 3.59207,-3.60425 1.242034,-1.560934 2.554931,-3.722457 3.336949,-5.493879 0.206135,-0.466936 0.390664,-0.848975 0.410063,-0.848975 0.158816,0 1.696293,1.356772 2.318145,2.045686 1.90006,2.104966 2.927535,4.103576 3.385887,6.586111 l 0.1222,0.661863 -0.221533,0.330931 c -1.330788,1.987964 -3.722826,4.589078 -5.580555,6.068324 -4.084898,3.252667 -8.672529,5.223642 -13.788813,5.924064 -1.590845,0.217787 -4.902732,0.290131 -6.315276,0.137946 z"
       id="path1385"
       transform="scale(0.26458333)" />
    <circle
       style="fill:#ffffff;stroke-width:0.146944;stroke-dasharray:none"
       id="path2195"
       cx="11.510155"
       cy="6.4961491"
       r="0.54088539" />
    <ellipse
       style="fill:#000000;stroke-width:0.0255726;stroke-dasharray:none"
       id="path2197"
       cx="11.598716"
       cy="6.2579651"
       rx="0.22993158"
       ry="0.23210615" />
    <ellipse
       style="fill:#000000;stroke-width:0.0107537;stroke-dasharray:none"
       id="path2197-3"
       cx="11.286336"
       cy="6.8455467"
       rx="0.096689895"
       ry="0.097604342" />
  </g>
</svg>
