<?xml version="1.0" encoding="UTF-8" ?>
<!DOCTYPE svg PUBLIC "-//W3C//DTD SVG 1.1//EN" "http://www.w3.org/Graphics/SVG/1.1/DTD/svg11.dtd">
<svg width="612pt" height="612pt" viewBox="0 0 612 612" version="1.1" xmlns="http://www.w3.org/2000/svg">
<g id="#ffffffff">
<path fill="#ffffff" opacity="1.00" d=" M 300.16 0.00 L 308.80 0.00 C 348.58 0.39 388.32 8.42 424.97 23.95 C 468.91 42.44 508.37 71.42 539.21 107.77 C 561.94 134.46 580.03 165.10 592.38 197.91 C 605.09 231.45 611.59 267.25 612.00 303.09 L 612.00 308.92 C 611.56 352.04 602.12 395.09 583.97 434.24 C 568.40 468.06 546.53 498.95 519.91 524.97 C 501.91 542.62 481.60 557.80 459.99 570.74 C 454.31 573.33 449.08 576.78 443.44 579.46 C 440.51 581.09 437.13 582.03 434.63 584.36 L 434.57 584.37 C 433.12 584.60 431.71 585.01 430.39 585.63 C 422.04 589.42 413.48 592.71 404.80 595.65 C 402.86 596.35 400.66 596.66 399.08 598.10 C 370.44 606.50 340.76 611.49 310.89 612.00 L 303.20 612.00 C 261.18 611.58 219.22 602.63 180.87 585.40 C 145.84 569.76 113.85 547.38 87.03 519.96 C 50.45 482.57 23.65 435.67 10.29 385.08 C 3.64 360.24 0.31 334.54 0.00 308.84 L 0.00 303.13 C 0.45 249.92 14.95 196.87 42.00 151.02 C 71.98 99.83 117.20 57.72 170.43 31.52 C 210.64 11.56 255.31 0.95 300.16 0.00 M 247.87 45.11 C 203.41 54.87 161.62 76.38 127.75 106.79 C 94.51 136.54 68.68 174.70 54.06 216.88 C 45.89 239.77 40.73 263.88 39.57 288.16 L 39.26 288.24 C 38.20 308.61 38.83 329.13 42.36 349.25 C 42.08 352.24 43.33 355.03 43.80 357.93 C 51.30 396.30 67.42 432.95 90.64 464.41 L 90.59 464.71 C 90.89 464.98 91.49 465.51 91.78 465.78 C 124.26 509.86 170.95 543.25 223.02 560.11 C 264.06 573.53 308.35 576.63 350.91 569.46 C 387.54 563.33 422.83 549.35 453.76 528.79 C 483.75 508.92 509.61 482.91 529.39 452.88 C 547.74 425.00 560.79 393.65 567.59 360.97 C 577.15 314.87 574.53 266.24 559.62 221.56 C 546.78 182.74 524.77 147.01 495.99 117.98 C 458.09 79.53 408.27 53.00 355.15 43.28 C 319.75 36.76 283.03 37.30 247.87 45.11 Z" />
</g>
<g id="#ffd200ff">
<path fill="#ffd200" opacity="1.00" d=" M 237.89 136.01 C 238.88 133.16 242.52 132.28 245.09 133.38 C 272.12 142.55 300.74 145.34 329.06 147.08 C 353.84 148.70 378.72 149.40 403.33 152.95 C 422.34 155.66 440.74 163.23 455.68 175.36 C 471.34 187.87 482.96 205.50 487.58 225.06 C 488.50 224.67 490.35 223.89 491.27 223.50 C 491.39 223.46 491.64 223.39 491.76 223.35 C 486.97 225.40 482.10 227.52 478.33 231.26 C 471.72 237.11 467.20 246.35 469.72 255.24 C 472.12 263.47 480.34 268.53 488.48 269.62 C 489.79 300.85 484.26 332.32 472.75 361.36 C 466.47 377.84 458.10 393.48 448.25 408.09 C 433.87 411.52 419.57 415.38 404.99 417.96 C 383.24 422.29 361.11 424.31 338.98 425.36 C 310.69 426.28 282.36 426.72 254.07 425.38 C 265.67 403.65 269.03 377.49 262.47 353.67 C 256.03 329.31 238.99 307.65 216.08 296.85 C 202.51 290.78 187.77 288.03 173.18 285.74 C 146.65 282.08 119.80 281.07 93.04 281.90 C 75.11 282.72 57.04 283.81 39.57 288.16 C 40.73 263.88 45.89 239.77 54.06 216.88 C 59.10 219.99 63.06 224.90 68.57 227.14 C 101.18 234.60 134.64 237.72 168.01 239.07 C 207.83 240.29 247.88 237.83 286.96 229.86 C 287.30 228.14 287.60 226.42 287.79 224.68 C 276.97 222.51 265.99 217.95 258.72 209.34 C 256.59 207.75 258.43 203.93 260.97 204.70 C 270.16 206.71 279.55 208.03 288.99 207.54 C 290.95 207.31 293.23 207.73 294.88 206.39 C 286.11 204.04 277.48 200.97 269.57 196.47 C 260.04 191.07 251.15 183.75 245.95 173.93 C 243.96 170.95 247.96 167.13 250.92 169.07 C 271.31 178.09 294.16 181.98 316.29 178.45 C 314.00 177.37 311.39 177.36 308.96 176.82 C 293.53 173.88 278.32 169.15 264.49 161.64 C 254.86 156.35 245.78 149.57 239.33 140.56 C 238.53 139.21 237.09 137.67 237.89 136.01 M 409.37 215.43 C 400.19 218.38 394.08 228.52 396.01 238.03 C 397.60 248.48 408.45 256.27 418.87 254.42 C 429.39 253.10 437.43 242.43 435.79 231.95 C 434.70 219.73 420.86 211.07 409.37 215.43 M 401.06 286.27 C 392.42 287.93 384.89 294.05 381.23 302.02 C 375.48 313.79 379.66 329.16 390.44 336.54 C 400.55 344.07 415.69 343.31 425.07 334.92 C 434.32 327.10 437.47 313.01 432.19 302.06 C 427.11 290.45 413.47 283.42 401.06 286.27 Z" />
</g>
<g id="#1a1a1aff">
<path fill="#1a1a1a" opacity="1.00" d=" M 409.37 215.43 C 420.86 211.07 434.70 219.73 435.79 231.95 C 437.43 242.43 429.39 253.10 418.87 254.42 C 408.45 256.27 397.60 248.48 396.01 238.03 C 394.08 228.52 400.19 218.38 409.37 215.43 M 416.49 218.72 C 411.23 220.60 409.87 228.31 414.17 231.87 C 418.19 235.82 425.90 233.62 427.07 228.05 C 429.01 222.09 422.16 216.05 416.49 218.72 M 406.22 244.27 C 402.01 246.16 405.70 252.99 409.64 250.37 C 413.53 248.35 409.99 241.90 406.22 244.27 Z" />
</g>
<g id="#f9f9f9ff">
<path fill="#f9f9f9" opacity="1.00" d=" M 416.49 218.72 C 422.16 216.05 429.01 222.09 427.07 228.05 C 425.90 233.62 418.19 235.82 414.17 231.87 C 409.87 228.31 411.23 220.60 416.49 218.72 Z" />
<path fill="#f9f9f9" opacity="1.00" d=" M 406.22 244.27 C 409.99 241.90 413.53 248.35 409.64 250.37 C 405.70 252.99 402.01 246.16 406.22 244.27 Z" />
</g>
<g id="#ff0800ff">
<path fill="#ff0800" opacity="1.00" d=" M 491.76 223.35 C 505.78 219.49 520.56 219.96 534.96 220.61 C 540.71 221.32 546.96 221.16 552.16 224.01 C 552.61 226.84 549.97 229.19 548.56 231.48 C 539.03 243.26 528.00 253.93 515.61 262.67 C 507.87 268.35 498.00 270.82 488.48 269.62 C 480.34 268.53 472.12 263.47 469.72 255.24 C 467.20 246.35 471.72 237.11 478.33 231.26 C 482.10 227.52 486.97 225.40 491.76 223.35 Z" />
<path fill="#ff0800" opacity="1.00" d=" M 401.06 286.27 C 413.47 283.42 427.11 290.45 432.19 302.06 C 437.47 313.01 434.32 327.10 425.07 334.92 C 415.69 343.31 400.55 344.07 390.44 336.54 C 379.66 329.16 375.48 313.79 381.23 302.02 C 384.89 294.05 392.42 287.93 401.06 286.27 Z" />
</g>
<g id="#aaaea2ff">
<path fill="#aaaea2" opacity="1.00" d=" M 39.57 288.16 C 57.04 283.81 75.11 282.72 93.04 281.90 C 119.80 281.07 146.65 282.08 173.18 285.74 C 187.77 288.03 202.51 290.78 216.08 296.85 C 238.99 307.65 256.03 329.31 262.47 353.67 C 269.03 377.49 265.67 403.65 254.07 425.38 C 238.57 455.32 206.91 476.70 172.99 478.03 C 164.78 478.78 156.68 477.03 148.58 476.09 C 138.06 472.96 127.58 468.99 118.75 462.31 C 109.40 455.14 101.60 446.22 94.22 437.10 C 74.57 412.22 58.69 384.57 44.65 356.21 C 43.25 354.13 42.78 351.67 42.36 349.25 C 38.83 329.13 38.20 308.61 39.26 288.24 L 39.57 288.16 Z" />
</g>
<g id="#8a542dff">
<path fill="#8a542d" opacity="1.00" d=" M 448.25 408.09 C 458.10 393.48 466.47 377.84 472.75 361.36 C 474.96 363.47 477.43 365.28 479.80 367.21 C 493.13 378.25 504.97 391.26 513.81 406.19 C 522.30 420.38 527.80 436.39 529.39 452.88 C 509.61 482.91 483.75 508.92 453.76 528.79 C 422.83 549.35 387.54 563.33 350.91 569.46 C 308.35 576.63 264.06 573.53 223.02 560.11 C 170.95 543.25 124.26 509.86 91.78 465.78 C 90.96 458.37 92.49 451.02 92.80 443.64 C 93.23 441.45 93.72 439.28 94.22 437.10 C 101.60 446.22 109.40 455.14 118.75 462.31 C 127.58 468.99 138.06 472.96 148.58 476.09 C 186.22 498.99 231.22 508.36 274.98 506.03 C 312.57 504.01 349.76 492.80 381.67 472.70 C 408.08 456.17 430.85 433.91 448.25 408.09 Z" />
</g>
<g id="#fff6ceff">
<path fill="#fff6ce" opacity="1.00" d=" M 404.99 417.96 C 419.57 415.38 433.87 411.52 448.25 408.09 C 430.85 433.91 408.08 456.17 381.67 472.70 C 349.76 492.80 312.57 504.01 274.98 506.03 C 231.22 508.36 186.22 498.99 148.58 476.09 C 156.68 477.03 164.78 478.78 172.99 478.03 C 206.91 476.70 238.57 455.32 254.07 425.38 C 282.36 426.72 310.69 426.28 338.98 425.36 C 361.11 424.31 383.24 422.29 404.99 417.96 Z" />
</g>
<g id="#6146339b">
<path fill="#614633" opacity="0.61" d=" M 90.64 464.41 C 91.48 457.50 90.86 450.42 92.80 443.64 C 92.49 451.02 90.96 458.37 91.78 465.78 C 91.49 465.51 90.89 464.98 90.59 464.71 L 90.64 464.41 Z" />
</g>
<g id="#826c5cb3">
<path fill="#826c5c" opacity="0.70" d=" M 443.44 579.46 C 449.08 576.78 454.31 573.33 459.99 570.74 C 455.64 574.29 450.48 576.67 445.62 579.43 C 442.00 581.14 438.63 583.60 434.63 584.36 C 437.13 582.03 440.51 581.09 443.44 579.46 Z" />
</g>
<g id="#806653ba">
<path fill="#806653" opacity="0.73" d=" M 430.39 585.63 C 431.71 585.01 433.12 584.60 434.57 584.37 C 432.33 586.41 429.35 587.25 426.65 588.48 C 417.62 592.10 408.59 595.96 399.08 598.10 C 400.66 596.66 402.86 596.35 404.80 595.65 C 413.48 592.71 422.04 589.42 430.39 585.63 Z" />
</g>
</svg>
